<svg width="34" height="35" viewBox="0 0 34 35" fill="none" xmlns="http://www.w3.org/2000/svg">
<path d="M11.333 3.33331V7.58331" stroke="#EFFFFB" stroke-width="1.5" stroke-miterlimit="10" stroke-linecap="round" stroke-linejoin="round"/>
<path d="M22.667 3.33331V7.58331" stroke="#EFFFFB" stroke-width="1.5" stroke-miterlimit="10" stroke-linecap="round" stroke-linejoin="round"/>
<path d="M22.6667 5.45831C27.3842 5.71331 29.75 7.51248 29.75 14.1708V22.9258C29.75 28.7625 28.3333 31.6808 21.25 31.6808H12.75C5.66667 31.6808 4.25 28.7625 4.25 22.9258V14.1708C4.25 7.51248 6.61583 5.72748 11.3333 5.45831H22.6667Z" stroke="#EFFFFB" stroke-width="1.5" stroke-miterlimit="10" stroke-linecap="round" stroke-linejoin="round"/>
<path d="M29.3962 25.4333H4.60449" stroke="#EFFFFB" stroke-width="1.5" stroke-miterlimit="10" stroke-linecap="round" stroke-linejoin="round"/>
<path d="M16.9997 12.1875C15.2572 12.1875 13.7838 13.1367 13.7838 14.9783C13.7838 15.8567 14.1947 16.5225 14.818 16.9475C13.9538 17.4575 13.458 18.2792 13.458 19.2425C13.458 20.9992 14.8038 22.09 16.9997 22.09C19.1813 22.09 20.5413 20.9992 20.5413 19.2425C20.5413 18.2792 20.0455 17.4433 19.1672 16.9475C19.8047 16.5083 20.2013 15.8567 20.2013 14.9783C20.2013 13.1367 18.7422 12.1875 16.9997 12.1875ZM16.9997 16.2108C16.263 16.2108 15.7247 15.7717 15.7247 15.0775C15.7247 14.3692 16.263 13.9583 16.9997 13.9583C17.7363 13.9583 18.2747 14.3692 18.2747 15.0775C18.2747 15.7717 17.7363 16.2108 16.9997 16.2108ZM16.9997 20.3333C16.0647 20.3333 15.3847 19.8658 15.3847 19.0158C15.3847 18.1658 16.0647 17.7125 16.9997 17.7125C17.9347 17.7125 18.6147 18.18 18.6147 19.0158C18.6147 19.8658 17.9347 20.3333 16.9997 20.3333Z" fill="#EFFFFB"/>
</svg>
