<svg width="34" height="35" viewBox="0 0 34 35" fill="none" xmlns="http://www.w3.org/2000/svg">
<path d="M31.1238 26.4675C31.1238 26.9775 31.0105 27.5016 30.7697 28.0116C30.5288 28.5216 30.2172 29.0033 29.8063 29.4566C29.1122 30.2216 28.3472 30.7741 27.483 31.1283C26.633 31.4825 25.7122 31.6666 24.7205 31.6666C23.2755 31.6666 21.7313 31.3266 20.1022 30.6325C18.473 29.9383 16.8438 29.0033 15.2288 27.8275C13.5997 26.6375 12.0555 25.32 10.5822 23.8608C9.12301 22.3875 7.80551 20.8433 6.62967 19.2283C5.46801 17.6133 4.53301 15.9983 3.85301 14.3975C3.17301 12.7825 2.83301 11.2383 2.83301 9.76498C2.83301 8.80165 3.00301 7.88081 3.34301 7.03081C3.68301 6.16665 4.22134 5.37331 4.97217 4.66498C5.87884 3.77248 6.87051 3.33331 7.91884 3.33331C8.31551 3.33331 8.71217 3.41831 9.06634 3.58831C9.43467 3.75831 9.76051 4.01331 10.0155 4.38165L13.3022 9.01415C13.5572 9.36831 13.7413 9.69415 13.8688 10.0058C13.9963 10.3033 14.0672 10.6008 14.0672 10.87C14.0672 11.21 13.968 11.55 13.7697 11.8758C13.5855 12.2016 13.3163 12.5416 12.9763 12.8816L11.8997 14.0008C11.7438 14.1566 11.673 14.3408 11.673 14.5675C11.673 14.6808 11.6872 14.78 11.7155 14.8933C11.758 15.0066 11.8005 15.0916 11.8288 15.1766C12.0838 15.6441 12.523 16.2533 13.1463 16.99C13.7838 17.7266 14.4638 18.4775 15.2005 19.2283C15.9655 19.9791 16.7022 20.6733 17.453 21.3108C18.1897 21.9341 18.7988 22.3591 19.2805 22.6141C19.3513 22.6425 19.4363 22.685 19.5355 22.7275C19.6488 22.77 19.7622 22.7841 19.8897 22.7841C20.1305 22.7841 20.3147 22.6991 20.4705 22.5433L21.5472 21.4808C21.9013 21.1266 22.2413 20.8575 22.5672 20.6875C22.893 20.4891 23.2188 20.39 23.573 20.39C23.8422 20.39 24.1255 20.4466 24.4372 20.5741C24.7488 20.7016 25.0747 20.8858 25.4288 21.1266L30.118 24.4558C30.4863 24.7108 30.7413 25.0083 30.8972 25.3625C31.0388 25.7166 31.1238 26.0708 31.1238 26.4675Z" stroke="#EFFFFB" stroke-width="1.5" stroke-miterlimit="10"/>
</svg>
