<svg xmlns="http://www.w3.org/2000/svg" width="47" height="47" fill="none" viewBox="0 0 47 47"><path stroke="#50D890" stroke-linecap="round" stroke-linejoin="round" stroke-width="2" d="M20.5429 4.36708L10.7708 8.02915C8.51874 8.87124 6.67792 11.5345 6.67792 13.9433V28.4937C6.67792 30.8045 8.20544 33.84 10.0659 35.2304L18.4867 41.5167C21.2479 43.5925 25.7912 43.5925 28.5525 41.5167L36.9733 35.2304C38.8338 33.84 40.3612 30.8045 40.3612 28.4937V13.9433C40.3612 11.5345 38.5204 8.87124 36.2683 8.02915L26.4962 4.36708C24.8317 3.76 22.1683 3.76 20.5429 4.36708Z"/><path stroke="#50D890" stroke-linecap="round" stroke-linejoin="round" stroke-width="2" d="M23.5 21.385C23.4216 21.385 23.3237 21.385 23.2454 21.385C21.4045 21.3263 19.9358 19.7988 19.9358 17.9383C19.9358 16.0388 21.4829 14.4917 23.3825 14.4917C25.2821 14.4917 26.8292 16.0388 26.8292 17.9383C26.8096 19.8183 25.3408 21.3263 23.5 21.385Z"/><path stroke="#50D890" stroke-linecap="round" stroke-linejoin="round" stroke-width="2" d="M19.6029 26.8684C17.7229 28.1217 17.7229 30.1779 19.6029 31.4313C21.7375 32.8608 25.2429 32.8608 27.3775 31.4313C29.2575 30.1779 29.2575 28.1217 27.3775 26.8684C25.2625 25.4388 21.7571 25.4388 19.6029 26.8684Z"/></svg>